<?xml version="1.0" encoding="UTF-8"?>
<svg xmlns="http://www.w3.org/2000/svg" xmlns:xlink="http://www.w3.org/1999/xlink" width="509pt" height="264pt" viewBox="0 0 509 264" version="1.1">
<defs>
<clipPath id="clip1">
  <path d="M 147 9 L 150 9 L 150 216.898438 L 147 216.898438 Z M 147 9 "/>
</clipPath>
<clipPath id="clip2">
  <path d="M 231 9 L 234 9 L 234 216.898438 L 231 216.898438 Z M 231 9 "/>
</clipPath>
<clipPath id="clip3">
  <path d="M 315 9 L 317 9 L 317 216.898438 L 315 216.898438 Z M 315 9 "/>
</clipPath>
<clipPath id="clip4">
  <path d="M 399 9 L 401 9 L 401 216.898438 L 399 216.898438 Z M 399 9 "/>
</clipPath>
<clipPath id="clip5">
  <path d="M 482 9 L 483.703125 9 L 483.703125 216.898438 L 482 216.898438 Z M 482 9 "/>
</clipPath>
<clipPath id="clip6">
  <path d="M 65.203125 214 L 483.703125 214 L 483.703125 216 L 65.203125 216 Z M 65.203125 214 "/>
</clipPath>
<clipPath id="clip7">
  <path d="M 65.203125 182 L 483.703125 182 L 483.703125 184 L 65.203125 184 Z M 65.203125 182 "/>
</clipPath>
<clipPath id="clip8">
  <path d="M 65.203125 150 L 483.703125 150 L 483.703125 153 L 65.203125 153 Z M 65.203125 150 "/>
</clipPath>
<clipPath id="clip9">
  <path d="M 65.203125 118 L 483.703125 118 L 483.703125 121 L 65.203125 121 Z M 65.203125 118 "/>
</clipPath>
<clipPath id="clip10">
  <path d="M 65.203125 87 L 483.703125 87 L 483.703125 89 L 65.203125 89 Z M 65.203125 87 "/>
</clipPath>
<clipPath id="clip11">
  <path d="M 65.203125 55 L 483.703125 55 L 483.703125 57 L 65.203125 57 Z M 65.203125 55 "/>
</clipPath>
<clipPath id="clip12">
  <path d="M 65.203125 23 L 483.703125 23 L 483.703125 26 L 65.203125 26 Z M 65.203125 23 "/>
</clipPath>
<clipPath id="clip13">
  <path d="M 65.203125 17 L 483.703125 17 L 483.703125 209 L 65.203125 209 Z M 65.203125 17 "/>
</clipPath>
</defs>
<g id="surface1">
<path style=" stroke:none;fill-rule:nonzero;fill:rgb(100%,100%,100%);fill-opacity:1;" d="M 0 263.84375 L 508.609375 263.84375 L 508.609375 0 L 0 0 Z M 0 263.84375 "/>
<path style=" stroke:none;fill-rule:nonzero;fill:rgb(100%,100%,100%);fill-opacity:1;" d="M 65.203125 216.898438 L 483.703125 216.898438 L 483.703125 9 L 65.203125 9 Z M 65.203125 216.898438 "/>
<g clip-path="url(#clip1)" clip-rule="nonzero">
<path style="fill:none;stroke-width:0.8;stroke-linecap:square;stroke-linejoin:round;stroke:rgb(69.019608%,69.019608%,69.019608%);stroke-opacity:1;stroke-miterlimit:4;" d="M 118.853125 173.51875 L 118.853125 7.2 " transform="matrix(1.25,0,0,1.25,0,0)"/>
</g>
<path style="fill:none;stroke-width:0.8;stroke-linecap:butt;stroke-linejoin:round;stroke:rgb(0%,0%,0%);stroke-opacity:1;stroke-miterlimit:4;" d="M 0.000296 -0.00125 L 0.000296 3.49875 " transform="matrix(1.25,0,0,1.25,148.566036,216.9)"/>
<path style=" stroke:none;fill-rule:nonzero;fill:rgb(0%,0%,0%);fill-opacity:1;" d="M 139.035156 234.109375 L 143.335938 234.109375 L 143.335938 235.148438 L 137.550781 235.148438 L 137.550781 234.109375 C 138.019531 233.625 138.65625 232.976562 139.464844 232.160156 C 140.273438 231.34375 140.78125 230.820312 140.988281 230.582031 C 141.382812 230.140625 141.65625 229.765625 141.8125 229.457031 C 141.972656 229.148438 142.050781 228.847656 142.050781 228.550781 C 142.050781 228.066406 141.878906 227.671875 141.539062 227.367188 C 141.199219 227.0625 140.757812 226.90625 140.210938 226.90625 C 139.824219 226.90625 139.417969 226.976562 138.988281 227.109375 C 138.558594 227.242188 138.101562 227.445312 137.613281 227.71875 L 137.613281 226.472656 C 138.109375 226.273438 138.574219 226.125 139.003906 226.023438 C 139.4375 225.921875 139.832031 225.871094 140.1875 225.871094 C 141.132812 225.871094 141.886719 226.105469 142.445312 226.578125 C 143.007812 227.050781 143.289062 227.679688 143.289062 228.46875 C 143.289062 228.84375 143.21875 229.199219 143.078125 229.535156 C 142.9375 229.871094 142.683594 230.265625 142.3125 230.722656 C 142.210938 230.839844 141.886719 231.183594 141.339844 231.746094 C 140.796875 232.308594 140.027344 233.097656 139.035156 234.109375 Z M 139.035156 234.109375 "/>
<path style=" stroke:none;fill-rule:nonzero;fill:rgb(0%,0%,0%);fill-opacity:1;" d="M 148.5625 226.847656 C 147.929688 226.847656 147.449219 227.160156 147.128906 227.785156 C 146.8125 228.410156 146.652344 229.347656 146.652344 230.601562 C 146.652344 231.851562 146.8125 232.785156 147.128906 233.410156 C 147.449219 234.035156 147.929688 234.347656 148.5625 234.347656 C 149.203125 234.347656 149.679688 234.035156 150 233.410156 C 150.320312 232.785156 150.480469 231.851562 150.480469 230.601562 C 150.480469 229.347656 150.320312 228.410156 150 227.785156 C 149.679688 227.160156 149.203125 226.847656 148.5625 226.847656 Z M 148.5625 225.871094 C 149.585938 225.871094 150.363281 226.273438 150.902344 227.082031 C 151.441406 227.890625 151.710938 229.0625 151.710938 230.601562 C 151.710938 232.136719 151.441406 233.304688 150.902344 234.113281 C 150.363281 234.921875 149.585938 235.324219 148.5625 235.324219 C 147.542969 235.324219 146.761719 234.921875 146.222656 234.113281 C 145.683594 233.304688 145.414062 232.136719 145.414062 230.601562 C 145.414062 229.0625 145.683594 227.890625 146.222656 227.082031 C 146.761719 226.273438 147.542969 225.871094 148.5625 225.871094 Z M 148.5625 225.871094 "/>
<path style=" stroke:none;fill-rule:nonzero;fill:rgb(0%,0%,0%);fill-opacity:1;" d="M 156.515625 226.847656 C 155.878906 226.847656 155.402344 227.160156 155.082031 227.785156 C 154.765625 228.410156 154.605469 229.347656 154.605469 230.601562 C 154.605469 231.851562 154.765625 232.785156 155.082031 233.410156 C 155.402344 234.035156 155.878906 234.347656 156.515625 234.347656 C 157.152344 234.347656 157.632812 234.035156 157.953125 233.410156 C 158.273438 232.785156 158.433594 231.851562 158.433594 230.601562 C 158.433594 229.347656 158.273438 228.410156 157.953125 227.785156 C 157.632812 227.160156 157.152344 226.847656 156.515625 226.847656 Z M 156.515625 225.871094 C 157.535156 225.871094 158.316406 226.273438 158.855469 227.082031 C 159.394531 227.890625 159.664062 229.0625 159.664062 230.601562 C 159.664062 232.136719 159.394531 233.304688 158.855469 234.113281 C 158.316406 234.921875 157.535156 235.324219 156.515625 235.324219 C 155.492188 235.324219 154.714844 234.921875 154.175781 234.113281 C 153.636719 233.304688 153.367188 232.136719 153.367188 230.601562 C 153.367188 229.0625 153.636719 227.890625 154.175781 227.082031 C 154.714844 226.273438 155.492188 225.871094 156.515625 225.871094 Z M 156.515625 225.871094 "/>
<g clip-path="url(#clip2)" clip-rule="nonzero">
<path style="fill:none;stroke-width:0.8;stroke-linecap:square;stroke-linejoin:round;stroke:rgb(69.019608%,69.019608%,69.019608%);stroke-opacity:1;stroke-miterlimit:4;" d="M 185.88125 173.51875 L 185.88125 7.2 " transform="matrix(1.25,0,0,1.25,0,0)"/>
</g>
<path style="fill:none;stroke-width:0.8;stroke-linecap:butt;stroke-linejoin:round;stroke:rgb(0%,0%,0%);stroke-opacity:1;stroke-miterlimit:4;" d="M 0.001394 -0.00125 L 0.001394 3.49875 " transform="matrix(1.25,0,0,1.25,232.34982,216.9)"/>
<path style=" stroke:none;fill-rule:nonzero;fill:rgb(0%,0%,0%);fill-opacity:1;" d="M 225.144531 227.109375 L 222.03125 231.972656 L 225.144531 231.972656 Z M 224.820312 226.035156 L 226.371094 226.035156 L 226.371094 231.972656 L 227.671875 231.972656 L 227.671875 233 L 226.371094 233 L 226.371094 235.148438 L 225.144531 235.148438 L 225.144531 233 L 221.03125 233 L 221.03125 231.808594 Z M 224.820312 226.035156 "/>
<path style=" stroke:none;fill-rule:nonzero;fill:rgb(0%,0%,0%);fill-opacity:1;" d="M 232.34375 226.847656 C 231.710938 226.847656 231.234375 227.160156 230.914062 227.785156 C 230.59375 228.410156 230.433594 229.347656 230.433594 230.601562 C 230.433594 231.851562 230.59375 232.785156 230.914062 233.410156 C 231.234375 234.035156 231.710938 234.347656 232.34375 234.347656 C 232.984375 234.347656 233.464844 234.035156 233.78125 233.410156 C 234.101562 232.785156 234.261719 231.851562 234.261719 230.601562 C 234.261719 229.347656 234.101562 228.410156 233.78125 227.785156 C 233.464844 227.160156 232.984375 226.847656 232.34375 226.847656 Z M 232.34375 225.871094 C 233.367188 225.871094 234.148438 226.273438 234.6875 227.082031 C 235.226562 227.890625 235.496094 229.0625 235.496094 230.601562 C 235.496094 232.136719 235.226562 233.304688 234.6875 234.113281 C 234.148438 234.921875 233.367188 235.324219 232.34375 235.324219 C 231.324219 235.324219 230.542969 234.921875 230.003906 234.113281 C 229.464844 233.304688 229.195312 232.136719 229.195312 230.601562 C 229.195312 229.0625 229.464844 227.890625 230.003906 227.082031 C 230.542969 226.273438 231.324219 225.871094 232.34375 225.871094 Z M 232.34375 225.871094 "/>
<path style=" stroke:none;fill-rule:nonzero;fill:rgb(0%,0%,0%);fill-opacity:1;" d="M 240.296875 226.847656 C 239.664062 226.847656 239.1875 227.160156 238.867188 227.785156 C 238.546875 228.410156 238.386719 229.347656 238.386719 230.601562 C 238.386719 231.851562 238.546875 232.785156 238.867188 233.410156 C 239.1875 234.035156 239.664062 234.347656 240.296875 234.347656 C 240.9375 234.347656 241.417969 234.035156 241.734375 233.410156 C 242.054688 232.785156 242.214844 231.851562 242.214844 230.601562 C 242.214844 229.347656 242.054688 228.410156 241.734375 227.785156 C 241.417969 227.160156 240.9375 226.847656 240.296875 226.847656 Z M 240.296875 225.871094 C 241.320312 225.871094 242.101562 226.273438 242.640625 227.082031 C 243.179688 227.890625 243.449219 229.0625 243.449219 230.601562 C 243.449219 232.136719 243.179688 233.304688 242.640625 234.113281 C 242.101562 234.921875 241.320312 235.324219 240.296875 235.324219 C 239.277344 235.324219 238.496094 234.921875 237.957031 234.113281 C 237.417969 233.304688 237.148438 232.136719 237.148438 230.601562 C 237.148438 229.0625 237.417969 227.890625 237.957031 227.082031 C 238.496094 226.273438 239.277344 225.871094 240.296875 225.871094 Z M 240.296875 225.871094 "/>
<g clip-path="url(#clip3)" clip-rule="nonzero">
<path style="fill:none;stroke-width:0.8;stroke-linecap:square;stroke-linejoin:round;stroke:rgb(69.019608%,69.019608%,69.019608%);stroke-opacity:1;stroke-miterlimit:4;" d="M 252.90625 173.51875 L 252.90625 7.2 " transform="matrix(1.25,0,0,1.25,0,0)"/>
</g>
<path style="fill:none;stroke-width:0.8;stroke-linecap:butt;stroke-linejoin:round;stroke:rgb(0%,0%,0%);stroke-opacity:1;stroke-miterlimit:4;" d="M -0.000633 -0.00125 L -0.000633 3.49875 " transform="matrix(1.25,0,0,1.25,316.133604,216.9)"/>
<path style=" stroke:none;fill-rule:nonzero;fill:rgb(0%,0%,0%);fill-opacity:1;" d="M 308.332031 230.101562 C 307.777344 230.101562 307.339844 230.289062 307.015625 230.667969 C 306.691406 231.046875 306.53125 231.566406 306.53125 232.222656 C 306.53125 232.878906 306.691406 233.398438 307.015625 233.777344 C 307.339844 234.160156 307.777344 234.347656 308.332031 234.347656 C 308.882812 234.347656 309.324219 234.160156 309.644531 233.777344 C 309.96875 233.398438 310.128906 232.878906 310.128906 232.222656 C 310.128906 231.566406 309.96875 231.046875 309.644531 230.667969 C 309.324219 230.289062 308.882812 230.101562 308.332031 230.101562 Z M 310.777344 226.234375 L 310.777344 227.359375 C 310.46875 227.214844 310.15625 227.101562 309.839844 227.023438 C 309.527344 226.945312 309.214844 226.90625 308.902344 226.90625 C 308.089844 226.90625 307.46875 227.183594 307.039062 227.730469 C 306.609375 228.28125 306.363281 229.113281 306.304688 230.222656 C 306.542969 229.867188 306.84375 229.597656 307.207031 229.40625 C 307.570312 229.21875 307.96875 229.125 308.402344 229.125 C 309.320312 229.125 310.042969 229.402344 310.574219 229.957031 C 311.105469 230.511719 311.371094 231.269531 311.371094 232.222656 C 311.371094 233.160156 311.09375 233.910156 310.539062 234.476562 C 309.988281 235.042969 309.25 235.324219 308.332031 235.324219 C 307.277344 235.324219 306.46875 234.921875 305.914062 234.113281 C 305.355469 233.304688 305.078125 232.136719 305.078125 230.601562 C 305.078125 229.160156 305.417969 228.011719 306.101562 227.15625 C 306.785156 226.300781 307.703125 225.871094 308.855469 225.871094 C 309.164062 225.871094 309.476562 225.902344 309.792969 225.960938 C 310.105469 226.023438 310.4375 226.113281 310.777344 226.234375 Z M 310.777344 226.234375 "/>
<path style=" stroke:none;fill-rule:nonzero;fill:rgb(0%,0%,0%);fill-opacity:1;" d="M 316.128906 226.847656 C 315.496094 226.847656 315.019531 227.160156 314.699219 227.785156 C 314.378906 228.410156 314.21875 229.347656 314.21875 230.601562 C 314.21875 231.851562 314.378906 232.785156 314.699219 233.410156 C 315.019531 234.035156 315.496094 234.347656 316.128906 234.347656 C 316.769531 234.347656 317.246094 234.035156 317.566406 233.410156 C 317.886719 232.785156 318.046875 231.851562 318.046875 230.601562 C 318.046875 229.347656 317.886719 228.410156 317.566406 227.785156 C 317.246094 227.160156 316.769531 226.847656 316.128906 226.847656 Z M 316.128906 225.871094 C 317.152344 225.871094 317.933594 226.273438 318.472656 227.082031 C 319.011719 227.890625 319.28125 229.0625 319.28125 230.601562 C 319.28125 232.136719 319.011719 233.304688 318.472656 234.113281 C 317.933594 234.921875 317.152344 235.324219 316.128906 235.324219 C 315.109375 235.324219 314.328125 234.921875 313.789062 234.113281 C 313.25 233.304688 312.980469 232.136719 312.980469 230.601562 C 312.980469 229.0625 313.25 227.890625 313.789062 227.082031 C 314.328125 226.273438 315.109375 225.871094 316.128906 225.871094 Z M 316.128906 225.871094 "/>
<path style=" stroke:none;fill-rule:nonzero;fill:rgb(0%,0%,0%);fill-opacity:1;" d="M 324.082031 226.847656 C 323.449219 226.847656 322.972656 227.160156 322.652344 227.785156 C 322.332031 228.410156 322.171875 229.347656 322.171875 230.601562 C 322.171875 231.851562 322.332031 232.785156 322.652344 233.410156 C 322.972656 234.035156 323.449219 234.347656 324.082031 234.347656 C 324.722656 234.347656 325.199219 234.035156 325.519531 233.410156 C 325.839844 232.785156 326 231.851562 326 230.601562 C 326 229.347656 325.839844 228.410156 325.519531 227.785156 C 325.199219 227.160156 324.722656 226.847656 324.082031 226.847656 Z M 324.082031 225.871094 C 325.105469 225.871094 325.886719 226.273438 326.425781 227.082031 C 326.964844 227.890625 327.234375 229.0625 327.234375 230.601562 C 327.234375 232.136719 326.964844 233.304688 326.425781 234.113281 C 325.886719 234.921875 325.105469 235.324219 324.082031 235.324219 C 323.0625 235.324219 322.28125 234.921875 321.742188 234.113281 C 321.203125 233.304688 320.933594 232.136719 320.933594 230.601562 C 320.933594 229.0625 321.203125 227.890625 321.742188 227.082031 C 322.28125 226.273438 323.0625 225.871094 324.082031 225.871094 Z M 324.082031 225.871094 "/>
<g clip-path="url(#clip4)" clip-rule="nonzero">
<path style="fill:none;stroke-width:0.8;stroke-linecap:square;stroke-linejoin:round;stroke:rgb(69.019608%,69.019608%,69.019608%);stroke-opacity:1;stroke-miterlimit:4;" d="M 319.934375 173.51875 L 319.934375 7.2 " transform="matrix(1.25,0,0,1.25,0,0)"/>
</g>
<path style="fill:none;stroke-width:0.8;stroke-linecap:butt;stroke-linejoin:round;stroke:rgb(0%,0%,0%);stroke-opacity:1;stroke-miterlimit:4;" d="M 0.000465 -0.00125 L 0.000465 3.49875 " transform="matrix(1.25,0,0,1.25,399.917388,216.9)"/>
<path style=" stroke:none;fill-rule:nonzero;fill:rgb(0%,0%,0%);fill-opacity:1;" d="M 391.960938 230.820312 C 391.375 230.820312 390.914062 230.976562 390.578125 231.289062 C 390.242188 231.605469 390.074219 232.035156 390.074219 232.582031 C 390.074219 233.132812 390.242188 233.566406 390.578125 233.878906 C 390.914062 234.191406 391.375 234.347656 391.960938 234.347656 C 392.546875 234.347656 393.007812 234.191406 393.34375 233.875 C 393.683594 233.558594 393.851562 233.128906 393.851562 232.582031 C 393.851562 232.035156 393.683594 231.605469 393.347656 231.289062 C 393.015625 230.976562 392.550781 230.820312 391.960938 230.820312 Z M 390.726562 230.296875 C 390.199219 230.167969 389.789062 229.921875 389.492188 229.558594 C 389.199219 229.195312 389.050781 228.753906 389.050781 228.230469 C 389.050781 227.503906 389.308594 226.929688 389.828125 226.503906 C 390.347656 226.082031 391.058594 225.871094 391.960938 225.871094 C 392.867188 225.871094 393.582031 226.082031 394.097656 226.503906 C 394.613281 226.929688 394.871094 227.503906 394.871094 228.230469 C 394.871094 228.753906 394.726562 229.195312 394.429688 229.558594 C 394.136719 229.921875 393.726562 230.167969 393.199219 230.296875 C 393.792969 230.433594 394.257812 230.707031 394.585938 231.109375 C 394.917969 231.511719 395.085938 232.003906 395.085938 232.582031 C 395.085938 233.46875 394.816406 234.144531 394.277344 234.617188 C 393.738281 235.089844 392.964844 235.324219 391.960938 235.324219 C 390.957031 235.324219 390.183594 235.089844 389.644531 234.617188 C 389.105469 234.144531 388.835938 233.46875 388.835938 232.582031 C 388.835938 232.003906 389.003906 231.511719 389.335938 231.109375 C 389.671875 230.707031 390.132812 230.433594 390.726562 230.296875 Z M 390.277344 228.347656 C 390.277344 228.820312 390.425781 229.1875 390.71875 229.453125 C 391.015625 229.71875 391.429688 229.847656 391.960938 229.847656 C 392.492188 229.847656 392.90625 229.71875 393.203125 229.453125 C 393.503906 229.1875 393.652344 228.820312 393.652344 228.347656 C 393.652344 227.875 393.503906 227.507812 393.203125 227.242188 C 392.90625 226.980469 392.492188 226.847656 391.960938 226.847656 C 391.429688 226.847656 391.015625 226.980469 390.71875 227.242188 C 390.425781 227.507812 390.277344 227.875 390.277344 228.347656 Z M 390.277344 228.347656 "/>
<path style=" stroke:none;fill-rule:nonzero;fill:rgb(0%,0%,0%);fill-opacity:1;" d="M 399.914062 226.847656 C 399.277344 226.847656 398.800781 227.160156 398.480469 227.785156 C 398.164062 228.410156 398.003906 229.347656 398.003906 230.601562 C 398.003906 231.851562 398.164062 232.785156 398.480469 233.410156 C 398.800781 234.035156 399.277344 234.347656 399.914062 234.347656 C 400.550781 234.347656 401.03125 234.035156 401.351562 233.410156 C 401.671875 232.785156 401.832031 231.851562 401.832031 230.601562 C 401.832031 229.347656 401.671875 228.410156 401.351562 227.785156 C 401.03125 227.160156 400.550781 226.847656 399.914062 226.847656 Z M 399.914062 225.871094 C 400.933594 225.871094 401.714844 226.273438 402.253906 227.082031 C 402.792969 227.890625 403.0625 229.0625 403.0625 230.601562 C 403.0625 232.136719 402.792969 233.304688 402.253906 234.113281 C 401.714844 234.921875 400.933594 235.324219 399.914062 235.324219 C 398.890625 235.324219 398.113281 234.921875 397.574219 234.113281 C 397.035156 233.304688 396.765625 232.136719 396.765625 230.601562 C 396.765625 229.0625 397.035156 227.890625 397.574219 227.082031 C 398.113281 226.273438 398.890625 225.871094 399.914062 225.871094 Z M 399.914062 225.871094 "/>
<path style=" stroke:none;fill-rule:nonzero;fill:rgb(0%,0%,0%);fill-opacity:1;" d="M 407.867188 226.847656 C 407.230469 226.847656 406.753906 227.160156 406.433594 227.785156 C 406.117188 228.410156 405.957031 229.347656 405.957031 230.601562 C 405.957031 231.851562 406.117188 232.785156 406.433594 233.410156 C 406.753906 234.035156 407.230469 234.347656 407.867188 234.347656 C 408.503906 234.347656 408.984375 234.035156 409.304688 233.410156 C 409.625 232.785156 409.785156 231.851562 409.785156 230.601562 C 409.785156 229.347656 409.625 228.410156 409.304688 227.785156 C 408.984375 227.160156 408.503906 226.847656 407.867188 226.847656 Z M 407.867188 225.871094 C 408.886719 225.871094 409.667969 226.273438 410.207031 227.082031 C 410.746094 227.890625 411.015625 229.0625 411.015625 230.601562 C 411.015625 232.136719 410.746094 233.304688 410.207031 234.113281 C 409.667969 234.921875 408.886719 235.324219 407.867188 235.324219 C 406.84375 235.324219 406.066406 234.921875 405.527344 234.113281 C 404.988281 233.304688 404.71875 232.136719 404.71875 230.601562 C 404.71875 229.0625 404.988281 227.890625 405.527344 227.082031 C 406.066406 226.273438 406.84375 225.871094 407.867188 225.871094 Z M 407.867188 225.871094 "/>
<g clip-path="url(#clip5)" clip-rule="nonzero">
<path style="fill:none;stroke-width:0.8;stroke-linecap:square;stroke-linejoin:round;stroke:rgb(69.019608%,69.019608%,69.019608%);stroke-opacity:1;stroke-miterlimit:4;" d="M 386.9625 173.51875 L 386.9625 7.2 " transform="matrix(1.25,0,0,1.25,0,0)"/>
</g>
<path style="fill:none;stroke-width:0.8;stroke-linecap:butt;stroke-linejoin:round;stroke:rgb(0%,0%,0%);stroke-opacity:1;stroke-miterlimit:4;" d="M 0.001562 -0.00125 L 0.001562 3.49875 " transform="matrix(1.25,0,0,1.25,483.701172,216.9)"/>
<path style=" stroke:none;fill-rule:nonzero;fill:rgb(0%,0%,0%);fill-opacity:1;" d="M 469.34375 234.109375 L 471.359375 234.109375 L 471.359375 227.15625 L 469.167969 227.597656 L 469.167969 226.472656 L 471.347656 226.035156 L 472.578125 226.035156 L 472.578125 234.109375 L 474.59375 234.109375 L 474.59375 235.148438 L 469.34375 235.148438 Z M 469.34375 234.109375 "/>
<path style=" stroke:none;fill-rule:nonzero;fill:rgb(0%,0%,0%);fill-opacity:1;" d="M 479.71875 226.847656 C 479.085938 226.847656 478.609375 227.160156 478.289062 227.785156 C 477.96875 228.410156 477.808594 229.347656 477.808594 230.601562 C 477.808594 231.851562 477.96875 232.785156 478.289062 233.410156 C 478.609375 234.035156 479.085938 234.347656 479.71875 234.347656 C 480.359375 234.347656 480.839844 234.035156 481.15625 233.410156 C 481.476562 232.785156 481.636719 231.851562 481.636719 230.601562 C 481.636719 229.347656 481.476562 228.410156 481.15625 227.785156 C 480.839844 227.160156 480.359375 226.847656 479.71875 226.847656 Z M 479.71875 225.871094 C 480.742188 225.871094 481.523438 226.273438 482.0625 227.082031 C 482.601562 227.890625 482.871094 229.0625 482.871094 230.601562 C 482.871094 232.136719 482.601562 233.304688 482.0625 234.113281 C 481.523438 234.921875 480.742188 235.324219 479.71875 235.324219 C 478.699219 235.324219 477.917969 234.921875 477.378906 234.113281 C 476.839844 233.304688 476.570312 232.136719 476.570312 230.601562 C 476.570312 229.0625 476.839844 227.890625 477.378906 227.082031 C 477.917969 226.273438 478.699219 225.871094 479.71875 225.871094 Z M 479.71875 225.871094 "/>
<path style=" stroke:none;fill-rule:nonzero;fill:rgb(0%,0%,0%);fill-opacity:1;" d="M 487.671875 226.847656 C 487.039062 226.847656 486.5625 227.160156 486.242188 227.785156 C 485.921875 228.410156 485.761719 229.347656 485.761719 230.601562 C 485.761719 231.851562 485.921875 232.785156 486.242188 233.410156 C 486.5625 234.035156 487.039062 234.347656 487.671875 234.347656 C 488.3125 234.347656 488.792969 234.035156 489.109375 233.410156 C 489.429688 232.785156 489.589844 231.851562 489.589844 230.601562 C 489.589844 229.347656 489.429688 228.410156 489.109375 227.785156 C 488.792969 227.160156 488.3125 226.847656 487.671875 226.847656 Z M 487.671875 225.871094 C 488.695312 225.871094 489.476562 226.273438 490.015625 227.082031 C 490.554688 227.890625 490.824219 229.0625 490.824219 230.601562 C 490.824219 232.136719 490.554688 233.304688 490.015625 234.113281 C 489.476562 234.921875 488.695312 235.324219 487.671875 235.324219 C 486.652344 235.324219 485.871094 234.921875 485.332031 234.113281 C 484.792969 233.304688 484.523438 232.136719 484.523438 230.601562 C 484.523438 229.0625 484.792969 227.890625 485.332031 227.082031 C 485.871094 226.273438 486.652344 225.871094 487.671875 225.871094 Z M 487.671875 225.871094 "/>
<path style=" stroke:none;fill-rule:nonzero;fill:rgb(0%,0%,0%);fill-opacity:1;" d="M 495.625 226.847656 C 494.992188 226.847656 494.515625 227.160156 494.195312 227.785156 C 493.875 228.410156 493.714844 229.347656 493.714844 230.601562 C 493.714844 231.851562 493.875 232.785156 494.195312 233.410156 C 494.515625 234.035156 494.992188 234.347656 495.625 234.347656 C 496.265625 234.347656 496.746094 234.035156 497.0625 233.410156 C 497.382812 232.785156 497.542969 231.851562 497.542969 230.601562 C 497.542969 229.347656 497.382812 228.410156 497.0625 227.785156 C 496.746094 227.160156 496.265625 226.847656 495.625 226.847656 Z M 495.625 225.871094 C 496.648438 225.871094 497.429688 226.273438 497.96875 227.082031 C 498.507812 227.890625 498.777344 229.0625 498.777344 230.601562 C 498.777344 232.136719 498.507812 233.304688 497.96875 234.113281 C 497.429688 234.921875 496.648438 235.324219 495.625 235.324219 C 494.605469 235.324219 493.824219 234.921875 493.285156 234.113281 C 492.746094 233.304688 492.476562 232.136719 492.476562 230.601562 C 492.476562 229.0625 492.746094 227.890625 493.285156 227.082031 C 493.824219 226.273438 494.605469 225.871094 495.625 225.871094 Z M 495.625 225.871094 "/>
<path style=" stroke:none;fill-rule:nonzero;fill:rgb(0%,0%,0%);fill-opacity:1;" d="M 262.621094 243.46875 L 262.621094 245.410156 L 264.933594 245.410156 L 264.933594 246.28125 L 262.621094 246.28125 L 262.621094 249.992188 C 262.621094 250.550781 262.695312 250.910156 262.847656 251.066406 C 263 251.226562 263.3125 251.304688 263.78125 251.304688 L 264.933594 251.304688 L 264.933594 252.246094 L 263.78125 252.246094 C 262.914062 252.246094 262.316406 252.085938 261.984375 251.761719 C 261.65625 251.4375 261.492188 250.847656 261.492188 249.992188 L 261.492188 246.28125 L 260.667969 246.28125 L 260.667969 245.410156 L 261.492188 245.410156 L 261.492188 243.46875 Z M 262.621094 243.46875 "/>
<path style=" stroke:none;fill-rule:nonzero;fill:rgb(0%,0%,0%);fill-opacity:1;" d="M 266.410156 245.410156 L 267.53125 245.410156 L 267.53125 252.246094 L 266.410156 252.246094 Z M 266.410156 242.746094 L 267.53125 242.746094 L 267.53125 244.171875 L 266.410156 244.171875 Z M 266.410156 242.746094 "/>
<path style=" stroke:none;fill-rule:nonzero;fill:rgb(0%,0%,0%);fill-opacity:1;" d="M 275.207031 246.722656 C 275.488281 246.21875 275.824219 245.84375 276.214844 245.605469 C 276.605469 245.367188 277.0625 245.246094 277.59375 245.246094 C 278.304688 245.246094 278.855469 245.496094 279.242188 245.992188 C 279.628906 246.492188 279.820312 247.199219 279.820312 248.117188 L 279.820312 252.246094 L 278.691406 252.246094 L 278.691406 248.15625 C 278.691406 247.5 278.574219 247.015625 278.34375 246.699219 C 278.109375 246.382812 277.757812 246.222656 277.28125 246.222656 C 276.699219 246.222656 276.238281 246.414062 275.902344 246.800781 C 275.5625 247.1875 275.394531 247.714844 275.394531 248.382812 L 275.394531 252.246094 L 274.265625 252.246094 L 274.265625 248.15625 C 274.265625 247.496094 274.148438 247.011719 273.917969 246.695312 C 273.6875 246.378906 273.328125 246.222656 272.84375 246.222656 C 272.269531 246.222656 271.8125 246.417969 271.476562 246.804688 C 271.136719 247.191406 270.96875 247.71875 270.96875 248.382812 L 270.96875 252.246094 L 269.839844 252.246094 L 269.839844 245.410156 L 270.96875 245.410156 L 270.96875 246.472656 C 271.226562 246.054688 271.53125 245.742188 271.890625 245.542969 C 272.25 245.34375 272.675781 245.246094 273.167969 245.246094 C 273.664062 245.246094 274.085938 245.371094 274.433594 245.625 C 274.78125 245.875 275.039062 246.242188 275.207031 246.722656 Z M 275.207031 246.722656 "/>
<path style=" stroke:none;fill-rule:nonzero;fill:rgb(0%,0%,0%);fill-opacity:1;" d="M 287.90625 248.546875 L 287.90625 249.09375 L 282.742188 249.09375 C 282.792969 249.867188 283.027344 250.457031 283.441406 250.863281 C 283.859375 251.269531 284.441406 251.46875 285.183594 251.46875 C 285.617188 251.46875 286.035156 251.417969 286.4375 251.3125 C 286.84375 251.207031 287.246094 251.046875 287.644531 250.835938 L 287.644531 251.898438 C 287.242188 252.070312 286.828125 252.199219 286.40625 252.289062 C 285.980469 252.378906 285.554688 252.421875 285.117188 252.421875 C 284.027344 252.421875 283.164062 252.105469 282.527344 251.472656 C 281.890625 250.835938 281.570312 249.976562 281.570312 248.894531 C 281.570312 247.777344 281.875 246.886719 282.476562 246.230469 C 283.082031 245.574219 283.898438 245.246094 284.921875 245.246094 C 285.84375 245.246094 286.570312 245.542969 287.105469 246.132812 C 287.640625 246.726562 287.90625 247.53125 287.90625 248.546875 Z M 286.785156 248.214844 C 286.777344 247.601562 286.605469 247.113281 286.269531 246.746094 C 285.933594 246.378906 285.488281 246.195312 284.933594 246.195312 C 284.308594 246.195312 283.808594 246.375 283.429688 246.726562 C 283.054688 247.082031 282.835938 247.582031 282.78125 248.222656 Z M 286.785156 248.214844 "/>
<g clip-path="url(#clip6)" clip-rule="nonzero">
<path style="fill:none;stroke-width:0.8;stroke-linecap:square;stroke-linejoin:round;stroke:rgb(69.019608%,69.019608%,69.019608%);stroke-opacity:1;stroke-miterlimit:4;" d="M 52.1625 171.925 L 386.9625 171.925 " transform="matrix(1.25,0,0,1.25,0,0)"/>
</g>
<path style="fill:none;stroke-width:0.8;stroke-linecap:butt;stroke-linejoin:round;stroke:rgb(0%,0%,0%);stroke-opacity:1;stroke-miterlimit:4;" d="M 0.001562 -0.000874 L -3.498438 -0.000874 " transform="matrix(1.25,0,0,1.25,65.201172,214.907342)"/>
<path style=" stroke:none;fill-rule:nonzero;fill:rgb(0%,0%,0%);fill-opacity:1;" d="M 27.421875 215.21875 L 35.246094 215.21875 L 35.246094 216.257812 L 27.421875 216.257812 Z M 27.421875 215.21875 "/>
<path style=" stroke:none;fill-rule:nonzero;fill:rgb(0%,0%,0%);fill-opacity:1;" d="M 38.121094 218.621094 L 40.136719 218.621094 L 40.136719 211.667969 L 37.945312 212.105469 L 37.945312 210.984375 L 40.125 210.542969 L 41.355469 210.542969 L 41.355469 218.621094 L 43.371094 218.621094 L 43.371094 219.65625 L 38.121094 219.65625 Z M 38.121094 218.621094 "/>
<path style=" stroke:none;fill-rule:nonzero;fill:rgb(0%,0%,0%);fill-opacity:1;" d="M 45.859375 218.105469 L 47.148438 218.105469 L 47.148438 219.65625 L 45.859375 219.65625 Z M 45.859375 218.105469 "/>
<path style=" stroke:none;fill-rule:nonzero;fill:rgb(0%,0%,0%);fill-opacity:1;" d="M 49.847656 210.542969 L 54.6875 210.542969 L 54.6875 211.582031 L 50.976562 211.582031 L 50.976562 213.816406 C 51.15625 213.753906 51.332031 213.707031 51.511719 213.679688 C 51.691406 213.648438 51.871094 213.632812 52.050781 213.632812 C 53.066406 213.632812 53.871094 213.910156 54.464844 214.46875 C 55.0625 215.027344 55.359375 215.78125 55.359375 216.734375 C 55.359375 217.714844 55.054688 218.476562 54.441406 219.019531 C 53.832031 219.5625 52.972656 219.835938 51.859375 219.835938 C 51.476562 219.835938 51.089844 219.800781 50.691406 219.738281 C 50.296875 219.671875 49.886719 219.574219 49.460938 219.445312 L 49.460938 218.203125 C 49.828125 218.402344 50.207031 218.550781 50.597656 218.648438 C 50.988281 218.746094 51.402344 218.796875 51.835938 218.796875 C 52.539062 218.796875 53.097656 218.609375 53.507812 218.242188 C 53.917969 217.871094 54.125 217.367188 54.125 216.734375 C 54.125 216.097656 53.917969 215.597656 53.507812 215.226562 C 53.097656 214.855469 52.539062 214.671875 51.835938 214.671875 C 51.507812 214.671875 51.175781 214.707031 50.847656 214.78125 C 50.523438 214.851562 50.1875 214.964844 49.847656 215.121094 Z M 49.847656 210.542969 "/>
<g clip-path="url(#clip7)" clip-rule="nonzero">
<path style="fill:none;stroke-width:0.8;stroke-linecap:square;stroke-linejoin:round;stroke:rgb(69.019608%,69.019608%,69.019608%);stroke-opacity:1;stroke-miterlimit:4;" d="M 52.1625 146.528125 L 386.9625 146.528125 " transform="matrix(1.25,0,0,1.25,0,0)"/>
</g>
<path style="fill:none;stroke-width:0.8;stroke-linecap:butt;stroke-linejoin:round;stroke:rgb(0%,0%,0%);stroke-opacity:1;stroke-miterlimit:4;" d="M 0.001562 -0.001454 L -3.498438 -0.001454 " transform="matrix(1.25,0,0,1.25,65.201172,183.161974)"/>
<path style=" stroke:none;fill-rule:nonzero;fill:rgb(0%,0%,0%);fill-opacity:1;" d="M 27.421875 183.472656 L 35.246094 183.472656 L 35.246094 184.511719 L 27.421875 184.511719 Z M 27.421875 183.472656 "/>
<path style=" stroke:none;fill-rule:nonzero;fill:rgb(0%,0%,0%);fill-opacity:1;" d="M 38.121094 186.875 L 40.136719 186.875 L 40.136719 179.921875 L 37.945312 180.359375 L 37.945312 179.238281 L 40.125 178.796875 L 41.355469 178.796875 L 41.355469 186.875 L 43.371094 186.875 L 43.371094 187.910156 L 38.121094 187.910156 Z M 38.121094 186.875 "/>
<path style=" stroke:none;fill-rule:nonzero;fill:rgb(0%,0%,0%);fill-opacity:1;" d="M 45.859375 186.359375 L 47.148438 186.359375 L 47.148438 187.910156 L 45.859375 187.910156 Z M 45.859375 186.359375 "/>
<path style=" stroke:none;fill-rule:nonzero;fill:rgb(0%,0%,0%);fill-opacity:1;" d="M 52.46875 179.609375 C 51.835938 179.609375 51.359375 179.921875 51.039062 180.546875 C 50.71875 181.171875 50.558594 182.109375 50.558594 183.363281 C 50.558594 184.613281 50.71875 185.550781 51.039062 186.175781 C 51.359375 186.800781 51.835938 187.113281 52.46875 187.113281 C 53.109375 187.113281 53.589844 186.800781 53.90625 186.175781 C 54.226562 185.550781 54.386719 184.613281 54.386719 183.363281 C 54.386719 182.109375 54.226562 181.171875 53.90625 180.546875 C 53.589844 179.921875 53.109375 179.609375 52.46875 179.609375 Z M 52.46875 178.632812 C 53.492188 178.632812 54.273438 179.039062 54.8125 179.847656 C 55.351562 180.652344 55.621094 181.828125 55.621094 183.363281 C 55.621094 184.898438 55.351562 186.070312 54.8125 186.878906 C 54.273438 187.683594 53.492188 188.089844 52.46875 188.089844 C 51.449219 188.089844 50.667969 187.683594 50.128906 186.878906 C 49.589844 186.070312 49.320312 184.898438 49.320312 183.363281 C 49.320312 181.828125 49.589844 180.652344 50.128906 179.847656 C 50.667969 179.039062 51.449219 178.632812 52.46875 178.632812 Z M 52.46875 178.632812 "/>
<g clip-path="url(#clip8)" clip-rule="nonzero">
<path style="fill:none;stroke-width:0.8;stroke-linecap:square;stroke-linejoin:round;stroke:rgb(69.019608%,69.019608%,69.019608%);stroke-opacity:1;stroke-miterlimit:4;" d="M 52.1625 121.134375 L 386.9625 121.134375 " transform="matrix(1.25,0,0,1.25,0,0)"/>
</g>
<path style="fill:none;stroke-width:0.8;stroke-linecap:butt;stroke-linejoin:round;stroke:rgb(0%,0%,0%);stroke-opacity:1;stroke-miterlimit:4;" d="M 0.001562 0.001091 L -3.498438 0.001091 " transform="matrix(1.25,0,0,1.25,65.201172,151.416605)"/>
<path style=" stroke:none;fill-rule:nonzero;fill:rgb(0%,0%,0%);fill-opacity:1;" d="M 27.421875 151.726562 L 35.246094 151.726562 L 35.246094 152.765625 L 27.421875 152.765625 Z M 27.421875 151.726562 "/>
<path style=" stroke:none;fill-rule:nonzero;fill:rgb(0%,0%,0%);fill-opacity:1;" d="M 40.542969 147.863281 C 39.910156 147.863281 39.433594 148.175781 39.113281 148.800781 C 38.792969 149.425781 38.632812 150.363281 38.632812 151.617188 C 38.632812 152.867188 38.792969 153.804688 39.113281 154.429688 C 39.433594 155.054688 39.910156 155.367188 40.542969 155.367188 C 41.183594 155.367188 41.664062 155.054688 41.980469 154.429688 C 42.300781 153.804688 42.460938 152.867188 42.460938 151.617188 C 42.460938 150.363281 42.300781 149.425781 41.980469 148.800781 C 41.664062 148.175781 41.183594 147.863281 40.542969 147.863281 Z M 40.542969 146.886719 C 41.566406 146.886719 42.347656 147.292969 42.886719 148.101562 C 43.425781 148.910156 43.695312 150.082031 43.695312 151.617188 C 43.695312 153.152344 43.425781 154.324219 42.886719 155.132812 C 42.347656 155.941406 41.566406 156.34375 40.542969 156.34375 C 39.523438 156.34375 38.742188 155.941406 38.203125 155.132812 C 37.664062 154.324219 37.394531 153.152344 37.394531 151.617188 C 37.394531 150.082031 37.664062 148.910156 38.203125 148.101562 C 38.742188 147.292969 39.523438 146.886719 40.542969 146.886719 Z M 40.542969 146.886719 "/>
<path style=" stroke:none;fill-rule:nonzero;fill:rgb(0%,0%,0%);fill-opacity:1;" d="M 45.859375 154.613281 L 47.148438 154.613281 L 47.148438 156.164062 L 45.859375 156.164062 Z M 45.859375 154.613281 "/>
<path style=" stroke:none;fill-rule:nonzero;fill:rgb(0%,0%,0%);fill-opacity:1;" d="M 49.847656 147.050781 L 54.6875 147.050781 L 54.6875 148.089844 L 50.976562 148.089844 L 50.976562 150.324219 C 51.15625 150.261719 51.332031 150.21875 51.511719 150.1875 C 51.691406 150.15625 51.871094 150.140625 52.050781 150.140625 C 53.066406 150.140625 53.871094 150.421875 54.464844 150.976562 C 55.0625 151.535156 55.359375 152.289062 55.359375 153.242188 C 55.359375 154.222656 55.054688 154.984375 54.441406 155.527344 C 53.832031 156.070312 52.972656 156.34375 51.859375 156.34375 C 51.476562 156.34375 51.089844 156.3125 50.691406 156.246094 C 50.296875 156.179688 49.886719 156.082031 49.460938 155.953125 L 49.460938 154.710938 C 49.828125 154.910156 50.207031 155.058594 50.597656 155.15625 C 50.988281 155.253906 51.402344 155.304688 51.835938 155.304688 C 52.539062 155.304688 53.097656 155.121094 53.507812 154.75 C 53.917969 154.378906 54.125 153.878906 54.125 153.242188 C 54.125 152.609375 53.917969 152.105469 53.507812 151.734375 C 53.097656 151.363281 52.539062 151.179688 51.835938 151.179688 C 51.507812 151.179688 51.175781 151.214844 50.847656 151.289062 C 50.523438 151.363281 50.1875 151.476562 49.847656 151.628906 Z M 49.847656 147.050781 "/>
<g clip-path="url(#clip9)" clip-rule="nonzero">
<path style="fill:none;stroke-width:0.8;stroke-linecap:square;stroke-linejoin:round;stroke:rgb(69.019608%,69.019608%,69.019608%);stroke-opacity:1;stroke-miterlimit:4;" d="M 52.1625 95.7375 L 386.9625 95.7375 " transform="matrix(1.25,0,0,1.25,0,0)"/>
</g>
<path style="fill:none;stroke-width:0.8;stroke-linecap:butt;stroke-linejoin:round;stroke:rgb(0%,0%,0%);stroke-opacity:1;stroke-miterlimit:4;" d="M 0.001562 0.000512 L -3.498438 0.000512 " transform="matrix(1.25,0,0,1.25,65.201172,119.671235)"/>
<path style=" stroke:none;fill-rule:nonzero;fill:rgb(0%,0%,0%);fill-opacity:1;" d="M 40.542969 116.121094 C 39.910156 116.121094 39.433594 116.433594 39.113281 117.058594 C 38.792969 117.679688 38.632812 118.621094 38.632812 119.875 C 38.632812 121.121094 38.792969 122.058594 39.113281 122.683594 C 39.433594 123.308594 39.910156 123.621094 40.542969 123.621094 C 41.183594 123.621094 41.664062 123.308594 41.980469 122.683594 C 42.300781 122.058594 42.460938 121.121094 42.460938 119.875 C 42.460938 118.621094 42.300781 117.679688 41.980469 117.058594 C 41.664062 116.433594 41.183594 116.121094 40.542969 116.121094 Z M 40.542969 115.144531 C 41.566406 115.144531 42.347656 115.546875 42.886719 116.355469 C 43.425781 117.164062 43.695312 118.335938 43.695312 119.875 C 43.695312 121.40625 43.425781 122.578125 42.886719 123.386719 C 42.347656 124.195312 41.566406 124.597656 40.542969 124.597656 C 39.523438 124.597656 38.742188 124.195312 38.203125 123.386719 C 37.664062 122.578125 37.394531 121.40625 37.394531 119.875 C 37.394531 118.335938 37.664062 117.164062 38.203125 116.355469 C 38.742188 115.546875 39.523438 115.144531 40.542969 115.144531 Z M 40.542969 115.144531 "/>
<path style=" stroke:none;fill-rule:nonzero;fill:rgb(0%,0%,0%);fill-opacity:1;" d="M 45.859375 122.871094 L 47.148438 122.871094 L 47.148438 124.421875 L 45.859375 124.421875 Z M 45.859375 122.871094 "/>
<path style=" stroke:none;fill-rule:nonzero;fill:rgb(0%,0%,0%);fill-opacity:1;" d="M 52.472656 116.121094 C 51.835938 116.121094 51.359375 116.433594 51.039062 117.058594 C 50.71875 117.679688 50.5625 118.621094 50.5625 119.875 C 50.5625 121.121094 50.71875 122.058594 51.039062 122.683594 C 51.359375 123.308594 51.835938 123.621094 52.472656 123.621094 C 53.109375 123.621094 53.589844 123.308594 53.910156 122.683594 C 54.230469 122.058594 54.390625 121.121094 54.390625 119.875 C 54.390625 118.621094 54.230469 117.679688 53.910156 117.058594 C 53.589844 116.433594 53.109375 116.121094 52.472656 116.121094 Z M 52.472656 115.144531 C 53.492188 115.144531 54.273438 115.546875 54.8125 116.355469 C 55.351562 117.164062 55.621094 118.335938 55.621094 119.875 C 55.621094 121.40625 55.351562 122.578125 54.8125 123.386719 C 54.273438 124.195312 53.492188 124.597656 52.472656 124.597656 C 51.449219 124.597656 50.671875 124.195312 50.132812 123.386719 C 49.59375 122.578125 49.324219 121.40625 49.324219 119.875 C 49.324219 118.335938 49.59375 117.164062 50.132812 116.355469 C 50.671875 115.546875 51.449219 115.144531 52.472656 115.144531 Z M 52.472656 115.144531 "/>
<g clip-path="url(#clip10)" clip-rule="nonzero">
<path style="fill:none;stroke-width:0.8;stroke-linecap:square;stroke-linejoin:round;stroke:rgb(69.019608%,69.019608%,69.019608%);stroke-opacity:1;stroke-miterlimit:4;" d="M 52.1625 70.340625 L 386.9625 70.340625 " transform="matrix(1.25,0,0,1.25,0,0)"/>
</g>
<path style="fill:none;stroke-width:0.8;stroke-linecap:butt;stroke-linejoin:round;stroke:rgb(0%,0%,0%);stroke-opacity:1;stroke-miterlimit:4;" d="M 0.001562 -0.000068 L -3.498438 -0.000068 " transform="matrix(1.25,0,0,1.25,65.201172,87.925866)"/>
<path style=" stroke:none;fill-rule:nonzero;fill:rgb(0%,0%,0%);fill-opacity:1;" d="M 40.542969 84.375 C 39.910156 84.375 39.433594 84.6875 39.113281 85.3125 C 38.792969 85.933594 38.632812 86.875 38.632812 88.128906 C 38.632812 89.375 38.792969 90.3125 39.113281 90.9375 C 39.433594 91.5625 39.910156 91.875 40.542969 91.875 C 41.183594 91.875 41.664062 91.5625 41.980469 90.9375 C 42.300781 90.3125 42.460938 89.375 42.460938 88.128906 C 42.460938 86.875 42.300781 85.933594 41.980469 85.3125 C 41.664062 84.6875 41.183594 84.375 40.542969 84.375 Z M 40.542969 83.398438 C 41.566406 83.398438 42.347656 83.800781 42.886719 84.609375 C 43.425781 85.417969 43.695312 86.589844 43.695312 88.128906 C 43.695312 89.660156 43.425781 90.832031 42.886719 91.640625 C 42.347656 92.449219 41.566406 92.851562 40.542969 92.851562 C 39.523438 92.851562 38.742188 92.449219 38.203125 91.640625 C 37.664062 90.832031 37.394531 89.660156 37.394531 88.128906 C 37.394531 86.589844 37.664062 85.417969 38.203125 84.609375 C 38.742188 83.800781 39.523438 83.398438 40.542969 83.398438 Z M 40.542969 83.398438 "/>
<path style=" stroke:none;fill-rule:nonzero;fill:rgb(0%,0%,0%);fill-opacity:1;" d="M 45.859375 91.125 L 47.148438 91.125 L 47.148438 92.675781 L 45.859375 92.675781 Z M 45.859375 91.125 "/>
<path style=" stroke:none;fill-rule:nonzero;fill:rgb(0%,0%,0%);fill-opacity:1;" d="M 49.847656 83.5625 L 54.6875 83.5625 L 54.6875 84.601562 L 50.976562 84.601562 L 50.976562 86.832031 C 51.15625 86.773438 51.332031 86.726562 51.511719 86.695312 C 51.691406 86.667969 51.871094 86.652344 52.050781 86.652344 C 53.066406 86.652344 53.875 86.929688 54.46875 87.488281 C 55.0625 88.042969 55.359375 88.800781 55.359375 89.75 C 55.359375 90.730469 55.054688 91.492188 54.445312 92.039062 C 53.832031 92.582031 52.972656 92.851562 51.863281 92.851562 C 51.480469 92.851562 51.089844 92.820312 50.691406 92.753906 C 50.296875 92.691406 49.886719 92.59375 49.464844 92.460938 L 49.464844 91.222656 C 49.828125 91.421875 50.207031 91.570312 50.597656 91.667969 C 50.988281 91.765625 51.402344 91.8125 51.835938 91.8125 C 52.539062 91.8125 53.097656 91.628906 53.507812 91.257812 C 53.917969 90.890625 54.125 90.386719 54.125 89.75 C 54.125 89.117188 53.917969 88.613281 53.507812 88.246094 C 53.097656 87.875 52.539062 87.6875 51.835938 87.6875 C 51.507812 87.6875 51.179688 87.726562 50.851562 87.796875 C 50.523438 87.871094 50.1875 87.984375 49.847656 88.140625 Z M 49.847656 83.5625 "/>
<g clip-path="url(#clip11)" clip-rule="nonzero">
<path style="fill:none;stroke-width:0.8;stroke-linecap:square;stroke-linejoin:round;stroke:rgb(69.019608%,69.019608%,69.019608%);stroke-opacity:1;stroke-miterlimit:4;" d="M 52.1625 44.94375 L 386.9625 44.94375 " transform="matrix(1.25,0,0,1.25,0,0)"/>
</g>
<path style="fill:none;stroke-width:0.8;stroke-linecap:butt;stroke-linejoin:round;stroke:rgb(0%,0%,0%);stroke-opacity:1;stroke-miterlimit:4;" d="M 0.001562 -0.000647 L -3.498438 -0.000647 " transform="matrix(1.25,0,0,1.25,65.201172,56.180496)"/>
<path style=" stroke:none;fill-rule:nonzero;fill:rgb(0%,0%,0%);fill-opacity:1;" d="M 38.121094 59.890625 L 40.136719 59.890625 L 40.136719 52.9375 L 37.945312 53.378906 L 37.945312 52.253906 L 40.125 51.816406 L 41.355469 51.816406 L 41.355469 59.890625 L 43.371094 59.890625 L 43.371094 60.929688 L 38.121094 60.929688 Z M 38.121094 59.890625 "/>
<path style=" stroke:none;fill-rule:nonzero;fill:rgb(0%,0%,0%);fill-opacity:1;" d="M 45.859375 59.378906 L 47.148438 59.378906 L 47.148438 60.929688 L 45.859375 60.929688 Z M 45.859375 59.378906 "/>
<path style=" stroke:none;fill-rule:nonzero;fill:rgb(0%,0%,0%);fill-opacity:1;" d="M 52.472656 52.628906 C 51.835938 52.628906 51.359375 52.941406 51.039062 53.566406 C 50.71875 54.191406 50.5625 55.128906 50.5625 56.382812 C 50.5625 57.632812 50.71875 58.566406 51.039062 59.191406 C 51.359375 59.816406 51.835938 60.128906 52.472656 60.128906 C 53.109375 60.128906 53.589844 59.816406 53.910156 59.191406 C 54.230469 58.566406 54.390625 57.632812 54.390625 56.382812 C 54.390625 55.128906 54.230469 54.191406 53.910156 53.566406 C 53.589844 52.941406 53.109375 52.628906 52.472656 52.628906 Z M 52.472656 51.652344 C 53.492188 51.652344 54.273438 52.054688 54.8125 52.863281 C 55.351562 53.671875 55.621094 54.84375 55.621094 56.382812 C 55.621094 57.917969 55.351562 59.085938 54.8125 59.894531 C 54.273438 60.703125 53.492188 61.105469 52.472656 61.105469 C 51.449219 61.105469 50.671875 60.703125 50.132812 59.894531 C 49.59375 59.085938 49.324219 57.917969 49.324219 56.382812 C 49.324219 54.84375 49.59375 53.671875 50.132812 52.863281 C 50.671875 52.054688 51.449219 51.652344 52.472656 51.652344 Z M 52.472656 51.652344 "/>
<g clip-path="url(#clip12)" clip-rule="nonzero">
<path style="fill:none;stroke-width:0.8;stroke-linecap:square;stroke-linejoin:round;stroke:rgb(69.019608%,69.019608%,69.019608%);stroke-opacity:1;stroke-miterlimit:4;" d="M 52.1625 19.546875 L 386.9625 19.546875 " transform="matrix(1.25,0,0,1.25,0,0)"/>
</g>
<path style="fill:none;stroke-width:0.8;stroke-linecap:butt;stroke-linejoin:round;stroke:rgb(0%,0%,0%);stroke-opacity:1;stroke-miterlimit:4;" d="M 0.001562 -0.001227 L -3.498438 -0.001227 " transform="matrix(1.25,0,0,1.25,65.201172,24.435128)"/>
<path style=" stroke:none;fill-rule:nonzero;fill:rgb(0%,0%,0%);fill-opacity:1;" d="M 38.121094 28.148438 L 40.136719 28.148438 L 40.136719 21.195312 L 37.945312 21.632812 L 37.945312 20.511719 L 40.125 20.070312 L 41.355469 20.070312 L 41.355469 28.148438 L 43.371094 28.148438 L 43.371094 29.183594 L 38.121094 29.183594 Z M 38.121094 28.148438 "/>
<path style=" stroke:none;fill-rule:nonzero;fill:rgb(0%,0%,0%);fill-opacity:1;" d="M 45.859375 27.632812 L 47.148438 27.632812 L 47.148438 29.183594 L 45.859375 29.183594 Z M 45.859375 27.632812 "/>
<path style=" stroke:none;fill-rule:nonzero;fill:rgb(0%,0%,0%);fill-opacity:1;" d="M 49.847656 20.070312 L 54.6875 20.070312 L 54.6875 21.109375 L 50.976562 21.109375 L 50.976562 23.34375 C 51.15625 23.28125 51.332031 23.234375 51.511719 23.207031 C 51.691406 23.175781 51.871094 23.160156 52.050781 23.160156 C 53.066406 23.160156 53.875 23.4375 54.46875 23.996094 C 55.0625 24.554688 55.359375 25.308594 55.359375 26.261719 C 55.359375 27.242188 55.054688 28.003906 54.445312 28.546875 C 53.832031 29.089844 52.972656 29.363281 51.863281 29.363281 C 51.480469 29.363281 51.089844 29.328125 50.691406 29.265625 C 50.296875 29.199219 49.886719 29.101562 49.464844 28.972656 L 49.464844 27.730469 C 49.828125 27.929688 50.207031 28.078125 50.597656 28.175781 C 50.988281 28.273438 51.402344 28.324219 51.835938 28.324219 C 52.539062 28.324219 53.097656 28.136719 53.507812 27.769531 C 53.917969 27.398438 54.125 26.894531 54.125 26.261719 C 54.125 25.625 53.917969 25.125 53.507812 24.753906 C 53.097656 24.382812 52.539062 24.199219 51.835938 24.199219 C 51.507812 24.199219 51.179688 24.234375 50.851562 24.308594 C 50.523438 24.378906 50.1875 24.492188 49.847656 24.648438 Z M 49.847656 20.070312 "/>
<path style=" stroke:none;fill-rule:nonzero;fill:rgb(0%,0%,0%);fill-opacity:1;" d="M 11.664062 109.789062 L 14.988281 112.261719 L 18.5 109.660156 L 18.5 110.984375 L 15.8125 112.976562 L 18.5 114.964844 L 18.5 116.289062 L 14.921875 113.632812 L 11.664062 116.0625 L 11.664062 114.738281 L 14.097656 112.925781 L 11.664062 111.113281 Z M 11.664062 109.789062 "/>
<g clip-path="url(#clip13)" clip-rule="nonzero">
<path style="fill:none;stroke-width:1.5;stroke-linecap:square;stroke-linejoin:round;stroke:rgb(12.156863%,46.666667%,70.588235%);stroke-opacity:1;stroke-miterlimit:4;" d="M 52.1625 72.75625 L 52.496875 82.90625 L 53.165625 88.790625 L 53.5 82.6 L 53.8375 89.646875 L 54.171875 80.15625 L 54.50625 90.121875 L 54.840625 71.95625 L 55.178125 102.540625 L 55.5125 102.703125 L 55.846875 73.828125 L 56.18125 107.14375 L 56.51875 94.19375 L 56.853125 92.73125 L 57.1875 111.575 L 57.521875 81.259375 L 57.859375 81.14375 L 58.19375 105 L 58.528125 58.4375 L 58.8625 105.23125 L 59.2 71.90625 L 59.534375 86.271875 L 59.86875 89.2375 L 60.203125 80.6875 L 60.540625 89.596875 L 60.875 82.565625 L 61.209375 83.075 L 61.54375 86.16875 L 61.88125 76.89375 L 62.215625 80.471875 L 62.55 75.59375 L 62.884375 73.440625 L 63.221875 72.99375 L 63.55625 63.428125 L 63.890625 105.859375 L 64.225 70.396875 L 64.5625 65.9625 L 64.896875 72.821875 L 65.23125 82.196875 L 65.565625 64.5875 L 65.9 56.428125 L 66.571875 85.753125 L 66.90625 83.509375 L 67.240625 72.640625 L 67.578125 80.6125 L 67.9125 97.753125 L 68.246875 79.840625 L 68.58125 77.396875 L 68.91875 63.40625 L 69.253125 61.778125 L 69.5875 85.028125 L 69.921875 71.9375 L 70.259375 80.090625 L 70.59375 66.7125 L 70.928125 78.91875 L 71.2625 64.346875 L 71.6 80.96875 L 71.934375 61.6125 L 72.26875 81.621875 L 72.603125 50.790625 L 72.940625 71.1375 L 73.275 46.0625 L 73.609375 52.134375 L 73.94375 80.578125 L 74.28125 55.103125 L 74.615625 65.221875 L 74.95 69.515625 L 75.621875 50.396875 L 75.95625 48.925 L 76.290625 71.73125 L 76.625 56.371875 L 76.9625 67.03125 L 77.296875 72.828125 L 77.63125 56.603125 L 77.965625 65.60625 L 78.3 50.209375 L 78.6375 75.471875 L 78.971875 73.4 L 79.30625 69.859375 L 79.978125 57.115625 L 80.3125 37.171875 L 80.646875 66.575 L 80.98125 54.00625 L 81.31875 64.165625 L 81.653125 50.575 L 81.9875 68.221875 L 82.321875 45.784375 L 82.659375 36.9 L 82.99375 60.390625 L 83.328125 70.1875 L 83.6625 73.6125 L 84 79.678125 L 84.334375 47.1875 L 84.66875 67.31875 L 85.003125 57.89375 L 85.340625 62.721875 L 85.675 49.421875 L 86.009375 59.81875 L 86.34375 65.4 L 86.68125 40.6375 L 87.35 56.2875 L 87.684375 36.415625 L 88.021875 62.865625 L 88.35625 48.25 L 88.690625 58.51875 L 89.025 45.375 L 89.3625 40.55 L 89.696875 39.95625 L 90.03125 81.64375 L 90.365625 59.75625 L 90.7 26.8875 L 91.0375 49.6625 L 91.371875 54.24375 L 91.70625 51.81875 L 92.040625 57.14375 L 92.378125 50.00625 L 92.7125 67.15 L 93.046875 44.24375 L 93.38125 55.01875 L 93.71875 39.975 L 94.053125 50.99375 L 94.3875 39.315625 L 94.721875 48.7 L 95.059375 40.75 L 95.39375 28.5375 L 96.0625 44.54375 L 96.4 45.734375 L 96.734375 63.94375 L 97.06875 37.55625 L 97.740625 54.096875 L 98.075 44.384375 L 98.409375 47.4875 L 99.08125 36.0875 L 99.415625 40.86875 L 99.75 41.815625 L 100.084375 54.4625 L 100.421875 37.396875 L 100.75625 40.240625 L 101.090625 55.465625 L 101.425 54.340625 L 101.7625 49.0875 L 102.096875 57.40625 L 102.43125 31.6625 L 102.765625 23.103125 L 103.1 49.384375 L 103.4375 33.85625 L 103.771875 37.6875 L 104.10625 26.3875 L 104.440625 35.54375 L 104.778125 55.559375 L 105.1125 54.146875 L 105.446875 34.74375 L 105.78125 45.740625 L 106.11875 39.75 L 106.453125 36.678125 L 106.7875 53.2625 L 107.121875 64.1875 L 107.459375 31.159375 L 107.79375 36.19375 L 108.128125 43.15625 L 108.4625 25.884375 L 109.134375 42.05 L 109.46875 47.903125 L 109.803125 44.378125 L 110.140625 42.634375 L 110.475 65.2625 L 110.809375 66.15 L 111.48125 42.484375 L 111.815625 35.921875 L 112.15 54.0375 L 112.484375 49.984375 L 112.821875 33.71875 L 113.15625 30.059375 L 113.490625 56.55625 L 113.825 50.3 L 114.1625 41.89375 L 114.496875 64.85625 L 114.83125 39.671875 L 115.165625 39.65 L 115.5 30.565625 L 115.8375 38.784375 L 116.171875 35.2375 L 116.50625 14.759375 L 116.840625 47.034375 L 117.178125 60.71875 L 117.5125 32.08125 L 117.846875 29.7 L 118.18125 61.46875 L 118.51875 55.1 L 118.853125 25.171875 L 119.1875 50.009375 L 119.521875 53.896875 L 119.859375 39.278125 L 120.19375 60.46875 L 120.528125 63.55625 L 120.8625 41.165625 L 121.2 59.5875 L 121.534375 66.603125 L 121.86875 37.471875 L 122.203125 45.18125 L 122.540625 41.946875 L 122.875 54.334375 L 123.209375 58.284375 L 123.54375 55.725 L 123.88125 72.684375 L 124.215625 44.18125 L 124.55 41.20625 L 124.884375 32.00625 L 125.221875 59.16875 L 125.55625 53.90625 L 125.890625 52.7375 L 126.225 54.546875 L 126.5625 69.04375 L 126.896875 44.465625 L 127.23125 70.9125 L 127.565625 60.153125 L 127.9 64.703125 L 128.571875 54.421875 L 129.240625 61.284375 L 129.578125 53.5 L 129.9125 57.196875 L 130.246875 45.225 L 130.58125 64.278125 L 130.91875 41.64375 L 131.253125 62.63125 L 131.5875 54.128125 L 131.921875 63.696875 L 132.259375 43.025 L 132.928125 74.9125 L 133.2625 73.909375 L 133.6 59.01875 L 133.934375 60.25 L 134.26875 67.90625 L 134.603125 67.89375 L 134.940625 51.48125 L 135.275 76.05 L 135.609375 63.20625 L 135.94375 70.175 L 136.28125 67.040625 L 136.615625 76.11875 L 136.95 52.115625 L 137.284375 90.23125 L 137.95625 71.74375 L 138.290625 59.196875 L 138.625 73.25625 L 138.9625 64.0875 L 139.296875 64.821875 L 139.63125 72.059375 L 139.965625 61.575 L 140.3 62.7625 L 140.6375 76.75625 L 141.30625 88.46875 L 141.640625 41.296875 L 141.978125 75.171875 L 142.3125 78.45625 L 142.646875 79.840625 L 142.98125 79.959375 L 143.31875 77.234375 L 143.653125 61.284375 L 144.321875 80.053125 L 144.659375 72.54375 L 144.99375 79.421875 L 145.328125 76.4875 L 145.6625 71.778125 L 146 71.465625 L 146.334375 63.321875 L 147.003125 93.490625 L 147.675 80.209375 L 148.009375 64.640625 L 148.68125 84.259375 L 149.015625 81.40625 L 149.35 68.2125 L 149.684375 74.478125 L 150.021875 73.775 L 150.35625 84.4625 L 150.690625 70.89375 L 151.025 81.125 L 151.3625 81.6125 L 151.696875 106.471875 L 152.03125 101.528125 L 152.365625 93.334375 L 152.7 95.65 L 153.0375 96.453125 L 153.371875 95.6875 L 153.70625 96.84375 L 154.378125 85.06875 L 154.7125 95.475 L 155.046875 75.75 L 155.38125 88.09375 L 155.71875 93.728125 L 156.053125 86.821875 L 156.3875 105.68125 L 156.721875 98.496875 L 157.059375 97.6375 L 157.39375 101.421875 L 157.728125 125.025 L 158.0625 89.834375 L 158.4 101.315625 L 158.734375 83.546875 L 159.06875 113.91875 L 159.403125 97.44375 L 159.740625 113.01875 L 160.075 99.4125 L 160.409375 102.1625 L 160.74375 103.6625 L 161.08125 81.384375 L 161.415625 82.5375 L 161.75 107.896875 L 162.084375 79.809375 L 162.421875 95.740625 L 162.75625 101.146875 L 163.090625 99.015625 L 163.425 105.41875 L 163.7625 103.059375 L 164.096875 108.575 L 164.43125 121.725 L 164.765625 100.371875 L 165.1 104.978125 L 165.4375 114.671875 L 165.771875 112.921875 L 166.10625 104.403125 L 166.440625 106.44375 L 166.778125 103.70625 L 167.1125 113.553125 L 167.446875 95.4 L 167.78125 124.23125 L 168.11875 129.6625 L 168.453125 103.7625 L 168.7875 112.303125 L 169.121875 100.559375 L 169.459375 117.91875 L 169.79375 106.796875 L 170.4625 132.05 L 170.8 113.315625 L 171.134375 114.36875 L 171.46875 111.10625 L 171.803125 127.3125 L 172.475 111.996875 L 172.809375 120.4375 L 173.14375 99.115625 L 173.815625 126.55 L 174.15 114.528125 L 174.484375 117.3 L 174.821875 129.8625 L 175.15625 133.03125 L 175.490625 150.28125 L 175.825 104.56875 L 176.1625 127.9375 L 176.496875 127.609375 L 176.83125 107.496875 L 177.165625 129.71875 L 177.5 109.7375 L 177.8375 138.1125 L 178.171875 140.590625 L 178.50625 127.921875 L 178.840625 134.909375 L 179.178125 132.840625 L 179.5125 114.134375 L 179.846875 123.921875 L 180.18125 123.91875 L 180.51875 122.378125 L 180.853125 125.26875 L 181.521875 147.709375 L 181.859375 128.5125 L 182.19375 132.115625 L 182.528125 132.725 L 182.8625 121.0125 L 183.2 120.76875 L 183.86875 155.659375 L 184.203125 120.39375 L 184.875 138.421875 L 185.209375 139.146875 L 185.54375 135.99375 L 185.88125 136.45625 L 186.215625 145.38125 L 186.55 135.178125 L 186.884375 121.578125 L 187.221875 144.3 L 187.55625 127.9375 L 187.890625 127.665625 L 188.225 140.14375 L 188.5625 134.425 L 188.896875 138.4125 L 189.23125 135.290625 L 189.565625 135.796875 L 189.9 140.871875 L 190.2375 121.05625 L 190.90625 144.309375 L 191.240625 137.934375 L 191.578125 149.7125 L 191.9125 149.715625 L 192.246875 131.93125 L 192.58125 151.44375 L 192.91875 139.871875 L 193.253125 143.803125 L 193.5875 130.975 L 193.921875 135.9875 L 194.259375 131.24375 L 194.59375 152.096875 L 194.928125 154.284375 L 195.2625 138.421875 L 195.6 141.853125 L 195.934375 149.775 L 196.26875 115.55625 L 196.603125 147.478125 L 197.275 133.36875 L 197.609375 154.8 L 198.28125 144.11875 L 198.615625 138.2 L 198.95 139.396875 L 199.284375 147.26875 L 199.621875 144.340625 L 199.95625 137.7375 L 200.290625 143.33125 L 200.625 142.225 L 200.9625 145.4625 L 201.296875 130.39375 L 201.63125 130.5375 L 201.965625 136.090625 L 202.3 145.334375 L 202.6375 134.45625 L 202.971875 137.35625 L 203.30625 150.48125 L 203.640625 149.353125 L 204.3125 132.425 L 204.646875 140.146875 L 204.98125 136.8375 L 205.31875 149.953125 L 205.653125 142.0375 L 205.9875 151.36875 L 206.321875 129.628125 L 206.659375 147.73125 L 206.99375 148.1875 L 207.328125 146.40625 L 207.6625 160.1 L 208 138.190625 L 208.334375 158.725 L 208.66875 164.478125 L 209.003125 148.678125 L 209.340625 157.45625 L 209.675 152.178125 L 210.009375 137.525 L 210.34375 150.5625 L 210.68125 159.190625 L 211.015625 157.15625 L 211.35 146.153125 L 211.684375 148.465625 L 212.021875 155.065625 L 212.690625 135.321875 L 213.025 146.68125 L 213.3625 145.046875 L 213.696875 148.034375 L 214.03125 137.609375 L 214.365625 152.509375 L 214.7 133.4 L 215.0375 156.078125 L 215.371875 162.715625 L 215.70625 148.125 L 216.040625 150.7 L 216.378125 131.35 L 216.7125 150.221875 L 217.046875 149.290625 L 217.38125 153.546875 L 217.71875 144.903125 L 218.053125 147.903125 L 218.3875 152.415625 L 218.721875 134.25 L 219.059375 146.140625 L 219.39375 147.065625 L 219.728125 141.6 L 220.0625 150.38125 L 220.4 133.584375 L 220.734375 138.0625 L 221.403125 159.203125 L 221.740625 127.846875 L 222.075 148.0125 L 222.409375 130.2625 L 222.74375 140.553125 L 223.08125 145.946875 L 223.415625 132.290625 L 223.75 147.078125 L 224.084375 139.190625 L 224.421875 151.103125 L 224.75625 150.340625 L 225.090625 138.725 L 225.425 151.4125 L 225.7625 141.2125 L 226.096875 147.51875 L 226.43125 141.553125 L 226.765625 159.603125 L 227.1 142.853125 L 227.4375 156.696875 L 227.771875 124.30625 L 228.10625 165.959375 L 228.778125 119.625 L 229.1125 130.05 L 229.446875 133.440625 L 230.11875 154.721875 L 230.453125 125.675 L 230.7875 141.0625 L 231.121875 136.15 L 231.459375 149.859375 L 231.79375 134.25625 L 232.4625 145.24375 L 232.8 128.315625 L 233.46875 130.00625 L 234.140625 122.7625 L 234.475 140.940625 L 234.809375 138.678125 L 235.14375 139.078125 L 235.48125 134.175 L 235.815625 133.171875 L 236.15 131.35 L 236.484375 125.696875 L 237.15625 140.096875 L 237.490625 133.49375 L 237.825 123.671875 L 238.1625 135.925 L 238.496875 120.934375 L 238.83125 129.340625 L 239.165625 128.6375 L 239.5 113.284375 L 239.8375 127.996875 L 240.171875 135.225 L 240.50625 116.1375 L 240.840625 125.684375 L 241.178125 126.978125 L 241.5125 145.1375 L 241.846875 143.184375 L 242.18125 108.015625 L 242.51875 127.884375 L 242.853125 101.584375 L 243.1875 106.50625 L 243.521875 143.546875 L 243.859375 135.021875 L 244.19375 121.61875 L 244.528125 133.2375 L 245.2 109.45 L 245.534375 106.60625 L 245.86875 116.6375 L 246.203125 137.171875 L 246.540625 122.73125 L 246.875 126.621875 L 247.209375 128.69375 L 247.54375 120.775 L 248.215625 118.884375 L 248.55 114.4125 L 248.884375 106.871875 L 249.221875 124.190625 L 249.890625 105.409375 L 250.225 114.709375 L 250.5625 99.071875 L 250.896875 114.790625 L 251.23125 106.034375 L 251.565625 108.115625 L 251.9 119.68125 L 252.2375 112.9625 L 252.571875 112.034375 L 252.90625 101.065625 L 253.240625 112.215625 L 253.578125 89.2625 L 253.9125 101.503125 L 254.246875 90.653125 L 254.58125 95.24375 L 254.91875 116.725 L 255.253125 92.671875 L 255.5875 97.865625 L 255.921875 97.596875 L 256.259375 112.675 L 256.59375 111 L 256.928125 93.921875 L 257.2625 100.878125 L 257.6 134.853125 L 257.934375 96.940625 L 258.26875 100.865625 L 258.603125 99.634375 L 258.940625 89.5875 L 259.275 109.746875 L 259.609375 100.94375 L 259.94375 98.090625 L 260.28125 93.896875 L 260.615625 87.565625 L 261.284375 101.1625 L 261.621875 93.409375 L 261.95625 81.853125 L 262.290625 81.859375 L 262.9625 96.165625 L 263.296875 109.40625 L 263.63125 115.56875 L 263.965625 84.43125 L 264.3 102.315625 L 264.6375 87.671875 L 264.971875 85.103125 L 265.640625 111.31875 L 265.978125 102.7125 L 266.3125 106.221875 L 266.646875 89.078125 L 266.98125 92.38125 L 267.31875 84.4 L 267.653125 91.365625 L 267.9875 78.55625 L 268.321875 110.6125 L 268.659375 84.203125 L 268.99375 80.803125 L 269.328125 83 L 269.6625 93.271875 L 270 91.121875 L 270.334375 84.521875 L 270.66875 89.515625 L 271.003125 85.43125 L 271.340625 89.990625 L 271.675 89.63125 L 272.009375 70.253125 L 272.34375 77.134375 L 272.68125 80.14375 L 273.015625 85.178125 L 273.35 79.334375 L 273.684375 82.546875 L 274.021875 59.196875 L 274.35625 87.15625 L 274.690625 76.7375 L 275.025 84.6375 L 275.359375 72.434375 L 275.696875 90.5125 L 276.03125 67.26875 L 276.365625 82.79375 L 276.7 77.946875 L 277.0375 83.890625 L 277.371875 73.846875 L 277.70625 76.49375 L 278.040625 86.846875 L 278.378125 65.94375 L 278.7125 72.690625 L 279.046875 68.825 L 279.38125 88.121875 L 280.053125 66.828125 L 280.3875 73.190625 L 280.721875 57.69375 L 281.059375 63.6375 L 281.39375 45.61875 L 281.728125 69.61875 L 282.0625 69.49375 L 282.4 71.5625 L 282.734375 60.33125 L 283.06875 60.3125 L 283.403125 69.734375 L 283.740625 67.4 L 284.075 57.190625 L 284.409375 75.903125 L 284.74375 75.78125 L 285.08125 48.3125 L 285.415625 56.471875 L 285.75 76.525 L 286.084375 57.140625 L 286.421875 60.1875 L 286.75625 50.078125 L 287.090625 61.025 L 287.425 62.0875 L 287.7625 88.740625 L 288.096875 81.6625 L 288.43125 44.090625 L 288.765625 51.16875 L 289.1 65.09375 L 289.4375 48.6375 L 289.771875 49.671875 L 290.10625 71.95 L 290.440625 79.90625 L 290.778125 54.80625 L 291.446875 61.571875 L 291.78125 45.7625 L 292.11875 58.115625 L 292.453125 48.8125 L 293.121875 70.9875 L 293.459375 49.778125 L 293.79375 56.665625 L 294.128125 60.45 L 294.4625 46.521875 L 294.8 54.053125 L 295.134375 53.146875 L 295.46875 60.309375 L 295.803125 56.8125 L 296.140625 61.01875 L 296.475 60.1125 L 296.809375 52.540625 L 297.14375 61.915625 L 297.48125 58.5375 L 297.815625 64.240625 L 298.15 60.740625 L 298.484375 35.340625 L 298.821875 56.446875 L 299.15625 47.15625 L 299.490625 47.259375 L 299.825 41.196875 L 300.1625 56.471875 L 300.496875 53.746875 L 300.83125 64.46875 L 301.165625 63.684375 L 301.5 64.16875 L 301.8375 59.671875 L 302.171875 40.325 L 302.50625 36.96875 L 302.840625 40.896875 L 303.178125 54.6375 L 303.5125 47.7625 L 303.846875 60.934375 L 304.18125 65.95 L 304.853125 40.38125 L 305.1875 50.615625 L 305.521875 51.4375 L 305.859375 36.628125 L 306.19375 38.6875 L 306.528125 55.39375 L 306.8625 16.34375 L 307.2 45.028125 L 307.534375 38.4625 L 307.86875 24.7 L 308.203125 45.396875 L 308.540625 34.65625 L 308.875 47.56875 L 309.209375 40.56875 L 309.54375 53.784375 L 310.215625 27.259375 L 310.55 49.596875 L 310.884375 43.559375 L 311.221875 52.0875 L 311.55625 35.0125 L 311.890625 57.471875 L 312.225 46.921875 L 312.5625 57.00625 L 312.896875 27.7375 L 313.23125 52.303125 L 313.565625 48.196875 L 313.9 54.678125 L 314.2375 53.540625 L 314.571875 42.715625 L 314.90625 40.48125 L 315.240625 46.08125 L 315.578125 41.0625 L 315.9125 44.58125 L 316.246875 52.24375 L 316.58125 49.653125 L 316.91875 60.446875 L 317.253125 39.159375 L 317.5875 46.91875 L 317.921875 42.58125 L 318.259375 29.515625 L 318.59375 63.509375 L 318.928125 41.0625 L 319.2625 44.884375 L 319.6 54.915625 L 319.934375 55.04375 L 320.26875 40.721875 L 320.603125 46.1 L 320.940625 49.25 L 321.275 46.55 L 321.609375 41.15625 L 321.94375 49.10625 L 322.28125 27.140625 L 322.615625 45.703125 L 322.95 57.68125 L 323.284375 56.140625 L 323.621875 38.2375 L 323.95625 49.41875 L 324.290625 51.54375 L 324.625 46.7625 L 325.296875 33.4875 L 325.63125 59.971875 L 325.965625 59.840625 L 326.3 49.628125 L 326.6375 45.9375 L 326.971875 56.396875 L 327.30625 60.284375 L 327.640625 38.615625 L 327.978125 50.05 L 328.3125 48.565625 L 328.646875 58.903125 L 328.98125 47.725 L 329.31875 71.60625 L 329.653125 56.590625 L 329.9875 35.2875 L 330.321875 46.784375 L 330.659375 30.26875 L 330.99375 45.028125 L 331.328125 49.29375 L 331.6625 44.99375 L 332 48.05625 L 332.334375 45.16875 L 332.66875 62.45625 L 333.003125 39.603125 L 333.340625 66.521875 L 334.009375 33.209375 L 334.34375 56.803125 L 334.68125 47.309375 L 335.015625 65.528125 L 335.35 52.521875 L 335.684375 46.90625 L 336.021875 59.071875 L 336.35625 54.03125 L 336.690625 58.11875 L 337.025 65.8125 L 337.359375 44.959375 L 337.696875 56.3 L 338.03125 58.7125 L 338.365625 59.215625 L 338.7 57.74375 L 339.0375 31.790625 L 339.70625 60.271875 L 340.040625 51.80625 L 340.378125 58.721875 L 340.7125 68.153125 L 341.046875 70.775 L 341.38125 62.909375 L 341.71875 60.815625 L 342.053125 64.46875 L 342.3875 53.903125 L 342.721875 64.034375 L 343.059375 54.946875 L 343.39375 72.30625 L 343.728125 79.540625 L 344.0625 56.55625 L 344.4 59.39375 L 344.734375 44.496875 L 345.06875 51.825 L 345.403125 55.059375 L 345.740625 66.16875 L 346.075 59.696875 L 346.409375 72.08125 L 346.74375 44.946875 L 347.08125 62.70625 L 347.415625 66.0625 L 347.75 55.334375 L 348.421875 73.665625 L 348.75625 50.2 L 349.090625 63.16875 L 349.425 59.565625 L 349.7625 47.540625 L 350.096875 68.815625 L 350.43125 71.440625 L 350.765625 71.421875 L 351.1 70.640625 L 351.4375 81.34375 L 351.771875 70.40625 L 352.10625 73.21875 L 352.440625 97.45 L 352.778125 69.78125 L 353.1125 64.61875 L 353.446875 68.65625 L 354.11875 84.690625 L 354.453125 69.925 L 354.7875 81.9 L 355.121875 66.771875 L 355.459375 101.4 L 355.79375 69.278125 L 356.128125 75.7625 L 356.4625 94.659375 L 356.8 68.725 L 357.134375 82.7125 L 357.46875 90.853125 L 357.803125 80.628125 L 358.140625 77.665625 L 358.475 78.825 L 358.809375 72.878125 L 359.14375 107.153125 L 359.48125 82.88125 L 359.815625 83.10625 L 360.15 76.234375 L 360.484375 95.425 L 360.821875 84.259375 L 361.15625 83.609375 L 361.490625 81.028125 L 361.825 92.321875 L 362.1625 79.0125 L 362.496875 93.3 L 363.165625 103.23125 L 363.8375 89.078125 L 364.171875 84.353125 L 364.50625 85.196875 L 364.840625 94.259375 L 365.178125 89.14375 L 365.5125 104.3125 L 365.846875 90.578125 L 366.18125 84.084375 L 366.51875 109.71875 L 366.853125 97.7 L 367.1875 93.290625 L 367.521875 86.9375 L 367.859375 98.003125 L 368.19375 98.43125 L 368.528125 109.796875 L 368.8625 85 L 369.2 77.278125 L 369.534375 108.41875 L 369.86875 101.19375 L 370.203125 106.103125 L 370.540625 94.465625 L 370.875 97.89375 L 371.209375 95.884375 L 371.54375 105.0375 L 371.88125 102.85625 L 372.215625 107.996875 L 372.55 102.796875 L 372.884375 110.821875 L 373.221875 104.509375 L 373.55625 111.865625 L 373.890625 109.546875 L 374.225 89.203125 L 374.5625 93.865625 L 374.896875 96.78125 L 375.23125 86.675 L 375.565625 81.909375 L 375.9 119 L 376.2375 120.475 L 376.571875 96.8375 L 376.90625 126.840625 L 377.240625 88.271875 L 377.578125 114.8 L 377.9125 105.85625 L 378.246875 121.696875 L 378.58125 124.265625 L 378.91875 122.675 L 379.253125 123.334375 L 379.5875 107.1375 L 379.921875 129.975 L 380.259375 105.3 L 380.59375 139.990625 L 381.2625 106.984375 L 381.6 130.475 L 381.934375 112.5 L 382.26875 119.95625 L 382.603125 145.56875 L 382.940625 112.046875 L 383.275 112.096875 L 383.609375 120.959375 L 383.94375 96.25 L 384.28125 130.81875 L 384.615625 128.35 L 384.95 139.89375 L 385.284375 120.4 L 385.621875 117.56875 L 386.290625 131.709375 L 386.625 120.1375 L 386.9625 130.56875 " transform="matrix(1.25,0,0,1.25,0,0)"/>
</g>
<path style="fill:none;stroke-width:0.8;stroke-linecap:square;stroke-linejoin:miter;stroke:rgb(0%,0%,0%);stroke-opacity:1;stroke-miterlimit:4;" d="M 52.1625 173.51875 L 52.1625 7.2 " transform="matrix(1.25,0,0,1.25,0,0)"/>
<path style="fill:none;stroke-width:0.8;stroke-linecap:square;stroke-linejoin:miter;stroke:rgb(0%,0%,0%);stroke-opacity:1;stroke-miterlimit:4;" d="M 386.9625 173.51875 L 386.9625 7.2 " transform="matrix(1.25,0,0,1.25,0,0)"/>
<path style="fill:none;stroke-width:0.8;stroke-linecap:square;stroke-linejoin:miter;stroke:rgb(0%,0%,0%);stroke-opacity:1;stroke-miterlimit:4;" d="M 52.1625 173.51875 L 386.9625 173.51875 " transform="matrix(1.25,0,0,1.25,0,0)"/>
<path style="fill:none;stroke-width:0.8;stroke-linecap:square;stroke-linejoin:miter;stroke:rgb(0%,0%,0%);stroke-opacity:1;stroke-miterlimit:4;" d="M 52.1625 7.2 L 386.9625 7.2 " transform="matrix(1.25,0,0,1.25,0,0)"/>
</g>
</svg>
